<svg class="svg-icon" viewBox="256 0 512 1024" version="1.1" xmlns="http://www.w3.org/2000/svg"><path d="M384 128h85.333333v85.333333H384V128m170.666667 0h85.333333v85.333333h-85.333333V128M384 298.666667h85.333333v85.333333H384V298.666667m170.666667 0h85.333333v85.333333h-85.333333V298.666667m-170.666667 170.666666h85.333333v85.333334H384v-85.333334m170.666667 0h85.333333v85.333334h-85.333333v-85.333334m-170.666667 170.666667h85.333333v85.333333H384v-85.333333m170.666667 0h85.333333v85.333333h-85.333333v-85.333333m-170.666667 170.666667h85.333333v85.333333H384v-85.333333m170.666667 0h85.333333v85.333333h-85.333333v-85.333333z" fill="" /></svg>
